<?xml version="1.0" encoding="iso-8859-1"?>
<!-- Generator: Adobe Illustrator 19.0.0, SVG Export Plug-In . SVG Version: 6.00 Build 0)  -->
<svg version="1.1" id="Layer_1" xmlns="http://www.w3.org/2000/svg" xmlns:xlink="http://www.w3.org/1999/xlink" x="0px" y="0px"
	 viewBox="0 0 490 490" style="enable-background:new 0 0 490 490;" xml:space="preserve">
<g>
	<g>
		<g>
			<path d="M470,354.932v-80c0-11.022-8.961-19.988-19.98-19.999H19.98C8.961,254.944,0,263.911,0,274.932v80
				c0,11.028,8.972,20,20,20v80c0,11.028,8.972,20,20,20h430c11.028,0,20-8.972,20-20v-80C490,363.904,481.028,354.932,470,354.932z
				 M200,389.932h30v20h-30V389.932z M45,299.932h20v30H45V299.932z M180,389.932v20H60v-20H180z M280,439.932H60v-20h220V439.932z
				 M280,409.932h-30v-20h30V409.932z M425,339.932H245v-20h180V339.932z M425,309.932h-80v-20h80V309.932z M450,439.932h-20v-50h20
				V439.932z"/>
			<path d="M347.33,232.932c4.903-9.965,7.67-21.163,7.67-33v-50c0-41.355-33.645-75-75-75c-8.647,0-17.165,1.504-25.227,4.401
				c0.7-18.866,4.879-42.538,16.871-44.537l-3.287-19.729c-27.671,4.612-33.015,41.497-33.655,64.073
				c-7.906-2.774-16.244-4.209-24.701-4.209c-41.355,0-75,33.645-75,75v50c0,11.837,2.767,23.035,7.671,33.001H347.33z M220,109.932
				v20c-13.785,0-25,11.215-25,25h-20C175,130.12,195.186,109.932,220,109.932z"/>
		</g>
	</g>
</g>
<g>
</g>
<g>
</g>
<g>
</g>
<g>
</g>
<g>
</g>
<g>
</g>
<g>
</g>
<g>
</g>
<g>
</g>
<g>
</g>
<g>
</g>
<g>
</g>
<g>
</g>
<g>
</g>
<g>
</g>
</svg>
